<svg width="80" height="80" viewBox="0 0 80 80" fill="none" xmlns="http://www.w3.org/2000/svg">
  <defs>
    <linearGradient id="cartGradient" x1="0%" y1="0%" x2="100%" y2="100%">
      <stop offset="0%" style="stop-color:#3B82F6" />
      <stop offset="100%" style="stop-color:#8B5CF6" />
    </linearGradient>
    
    <linearGradient id="cursorGradient" x1="0%" y1="0%" x2="100%" y2="100%">
      <stop offset="0%" style="stop-color:#10B981" />
      <stop offset="100%" style="stop-color:#059669" />
    </linearGradient>
  </defs>
  
  <!-- Shopping Cart -->
  <g transform="translate(20, 20)">
    <!-- Cart Body -->
    <rect x="5" y="15" width="30" height="20" rx="3" fill="none" stroke="url(#cartGradient)" stroke-width="2.5"/>
    
    <!-- Cart Handle -->
    <path d="M5 15 L2 12 L2 8 L8 8" fill="none" stroke="url(#cartGradient)" stroke-width="2.5" stroke-linecap="round" stroke-linejoin="round"/>
    
    <!-- Cart Wheels -->
    <circle cx="12" cy="37" r="3" fill="url(#cartGradient)"/>
    <circle cx="28" cy="37" r="3" fill="url(#cartGradient)"/>
    
    <!-- Dollar Sign in Cart -->
    <text x="20" y="28" text-anchor="middle" font-family="Arial, sans-serif" font-size="12" font-weight="bold" fill="url(#cartGradient)">$</text>
  </g>
  
  <!-- Click Cursor -->
  <g transform="translate(50, 15)">
    <path d="M0 0 L0 10 L6 7 L4.5 5.5 L9 5.5 L4.5 0 Z" fill="url(#cursorGradient)" stroke="white" stroke-width="0.5"/>
    
    <!-- Click Effect -->
    <g opacity="0.8">
      <circle cx="4.5" cy="5.5" r="1" fill="#F59E0B" opacity="0.6"/>
      <circle cx="8" cy="3" r="0.8" fill="#F59E0B" opacity="0.4"/>
      <circle cx="6" cy="8" r="0.6" fill="#F59E0B" opacity="0.5"/>
      <circle cx="2" cy="6" r="0.7" fill="#F59E0B" opacity="0.3"/>
    </g>
  </g>
  
  <!-- Sparkle Effects -->
  <g opacity="0.6">
    <path d="M15 10 L17 12 L15 14 L13 12 Z" fill="#3B82F6"/>
    <path d="M65 25 L67 27 L65 29 L63 27 Z" fill="#8B5CF6"/>
    <path d="M10 50 L12 52 L10 54 L8 52 Z" fill="#10B981"/>
  </g>
</svg>
